<svg xmlns="http://www.w3.org/2000/svg" viewBox="0 0 480 320" fill="none">
  <circle cx="300" cy="166" r="112" fill="#fff" stroke="#e4dadd"/>
  <circle cx="300" cy="166" r="80" fill="#fbf1f2" stroke="#f0c9cf"/>
  <circle cx="300" cy="166" r="48" fill="#fff" stroke="#e4b9c1"/>
  <circle cx="300" cy="166" r="18" fill="#a51c30"/>
  <path d="M84 270 C 140 250, 190 206, 296 168" stroke="#181214" stroke-width="2" stroke-dasharray="3 8" stroke-linecap="round"/>
  <path d="M300 166 L 236 210" stroke="#181214" stroke-width="4" stroke-linecap="round"/>
  <path d="M236 210 l-16 2 l8 -10 z M236 210 l-6 14 l12 -6 z" fill="#181214"/>
  <path d="M231 214 l-20 -2 M231 214 l-4 18" stroke="#181214" stroke-width="3" stroke-linecap="round"/>
  <g>
    <rect x="44" y="46" width="128" height="40" rx="8" fill="#fff" stroke="#e4dadd"/><circle cx="66" cy="66" r="7" fill="#d6c9cc"/><rect x="82" y="62" width="72" height="8" rx="4" fill="#e4dadd"/>
    <rect x="60" y="100" width="128" height="40" rx="8" fill="#fff" stroke="#a51c30" stroke-width="2"/><circle cx="82" cy="120" r="7" fill="#a51c30"/><rect x="98" y="116" width="72" height="8" rx="4" fill="#a51c30" opacity=".35"/>
    <rect x="44" y="154" width="128" height="40" rx="8" fill="#fff" stroke="#e4dadd"/><circle cx="66" cy="174" r="7" fill="#d6c9cc"/><rect x="82" y="170" width="72" height="8" rx="4" fill="#e4dadd"/>
  </g>
</svg>
